{"title":"War Chod Na Yaar 2013 CamRip x264 MP3 [TMB] - Hindi","uid":9036214,"size":547339010,"categoryP":"video","categoryS":"movies","magnet":"?xt=urn:btih:1c699ba275b084c82c5b47c7d53457e8069af20c&amp;dn=War+Chod+Na+Yaar+2013+CamRip+x264+MP3+%5BTMB%5D+-+Hindi&amp;tr=udp%3A%2F%2Ftracker.openbittorrent.com%3A80&amp;tr=udp%3A%2F%2Fopen.demonii.com%3A1337&amp;tr=udp%3A%2F%2Ftracker.coppersurfer.tk%3A6969&amp;tr=udp%3A%2F%2Fexodus.desync.com%3A6969","seeders":1,"leechers":0,"uploader":"SJonam","files":2,"time":1381509417,"description":"TMB Group Presents...\n &lt;a href=&quot;\nhttp://t1.someimage.com/2MmH0jo.jpg&quot; rel=&quot;nofollow&quot; target=&quot;_NEW&quot;&gt;\nhttp://t1.someimage.com/2MmH0jo.jpg&lt;/a&gt; &lt;a href=&quot;\nhttp://t1.someimage.com/GH5PSaV.jpg&quot; rel=&quot;nofollow&quot; target=&quot;_NEW&quot;&gt;\nhttp://t1.someimage.com/GH5PSaV.jpg&lt;/a&gt; &lt;a href=&quot;\nhttp://t1.someimage.com/fvZUpB3.jpg&quot; rel=&quot;nofollow&quot; target=&quot;_NEW&quot;&gt;\nhttp://t1.someimage.com/fvZUpB3.jpg&lt;/a&gt; &lt;a href=&quot;\nhttp://t1.someimage.com/PEbowBw.jpg&quot; rel=&quot;nofollow&quot; target=&quot;_NEW&quot;&gt;\nhttp://t1.someimage.com/PEbowBw.jpg&lt;/a&gt; &lt;a href=&quot;\nhttp://t1.someimage.com/fyaJbVf.jpg&quot; rel=&quot;nofollow&quot; target=&quot;_NEW&quot;&gt;\nhttp://t1.someimage.com/fyaJbVf.jpg&lt;/a&gt; &lt;a href=&quot;\nhttp://t1.someimage.com/IRVrRG1.jpg&quot; rel=&quot;nofollow&quot; target=&quot;_NEW&quot;&gt;\nhttp://t1.someimage.com/IRVrRG1.jpg&lt;/a&gt; \n\nMedia Info - \nGeneral\nComplete name                  : War Chod Na Yaar 2013 CamRip x264 MP3 [TMB].avi\nFormat                         : AVI\nFormat/Info                    : Audio Video Interleave\nFile size                      : 515 MiB\nDuration                       : 1h 45mn\nOverall bit rate               : 682 Kbps\nWriting application            : Lavf54.63.104\n\nVideo\nID                             : 0\nFormat                         : AVC\nFormat/Info                    : Advanced Video Codec\nFormat profile                 : &lt;a class=&quot;__cf_email__&quot; href=&quot;/cdn-cgi/l/email-protection&quot; data-cfemail=&quot;165b777f78565a253826&quot;&gt;[email&amp;#160;protected]&lt;/a&gt;&lt;script cf-hash='f9e31' type=&quot;text/javascript&quot;&gt;\n/* &lt;![CDATA[ */!function(){try{var t=&quot;currentScript&quot;in document?document.currentScript:function(){for(var t=document.getElementsByTagName(&quot;script&quot;),e=t.length;e--;)if(t[e].getAttribute(&quot;cf-hash&quot;))return t[e]}();if(t&amp;&amp;t.previousSibling){var e,r,n,i,c=t.previousSibling,a=c.getAttribute(&quot;data-cfemail&quot;);if(a){for(e=&quot;&quot;,r=parseInt(a.substr(0,2),16),n=2;a.length-n;n+=2)i=parseInt(a.substr(n,2),16)^r,e+=String.fromCharCode(i);e=document.createTextNode(e),c.parentNode.replaceChild(e,c)}}}catch(u){}}();/* ]]&gt; */&lt;/script&gt;\nFormat settings, CABAC         : Yes\nFormat settings, ReFrames      : 1 frame\nCodec ID                       : H264\nDuration                       : 1h 45mn\nBit rate                       : 412 Kbps\nWidth                          : 768 pixels\nHeight                         : 412 pixels\nDisplay aspect ratio           : 1.85:1\nFrame rate mode                : Variable\nFrame rate                     : 25.000 fps\nColor space                    : YUV\nChroma subsampling             : 4:2:0\nBit depth                      : 8 bits\nScan type                      : Progressive\nBits/(Pixel*Frame)             : 0.052\nStream size                    : 312 MiB (61%)\nWriting library                : x264 core 129\n\nAudio\nID                             : 1\nFormat                         : MPEG Audio\nFormat version                 : Version 1\nFormat profile                 : Layer 3\nMode                           : Joint stereo\nCodec ID                       : 55\nCodec ID/Hint                  : MP3\nDuration                       : 1h 45mn\nBit rate mode                  : Constant\nBit rate                       : 256 Kbps\nChannel count                  : 2 channels\nSampling rate                  : 48.0 KHz\nCompression mode               : Lossy\nStream size                    : 193 MiB (38%)\nAlignment                      : Aligned on interleaves\nInterleave, duration           : 24 ms (0.60 video frame)\n\nSample in Torrent...\n\nIf you are looking for better print then wait for screener...\n\nRipper : Manojvb\n\nSeeding will be very slow for first 6 hours...\n\n\nEnjoy this TMB Exclusive Release...!","torrent":{"xt":"urn:btih:1c699ba275b084c82c5b47c7d53457e8069af20c","amp;dn":"War+Chod+Na+Yaar+2013+CamRip+x264+MP3+%5BTMB%5D+-+Hindi","amp;tr":["udp%3A%2F%2Ftracker.openbittorrent.com%3A80","udp%3A%2F%2Fopen.demonii.com%3A1337","udp%3A%2F%2Ftracker.coppersurfer.tk%3A6969","udp%3A%2F%2Fexodus.desync.com%3A6969"],"infoHash":"1c699ba275b084c82c5b47c7d53457e8069af20c","infoHashBuffer":{"type":"Buffer","data":[28,105,155,162,117,176,132,200,44,91,71,199,213,52,87,232,6,154,242,12]},"announce":[],"urlList":[]}}